<svg width="17" height="16" viewBox="0 0 17 16" fill="none" xmlns="http://www.w3.org/2000/svg">
<path d="M2.11719 15.26H4.67614V3.56422L11.4859 15.26H14.4044V0H11.8454V11.0342L5.47978 0H2.11719V15.26Z" fill="#006156"/>
<path fill-rule="evenodd" clip-rule="evenodd" d="M0 6.36834C0 5.77898 0.473422 5.30121 1.05742 5.30121H15.1563C15.7403 5.30121 16.2137 5.77898 16.2137 6.36834C16.2137 6.9577 15.7403 7.43547 15.1563 7.43547H1.05742C0.473422 7.43547 0 6.9577 0 6.36834Z" fill="#006156"/>
<path fill-rule="evenodd" clip-rule="evenodd" d="M0 9.92492C0 9.33556 0.473422 8.85779 1.05742 8.85779H15.1563C15.7403 8.85779 16.2137 9.33556 16.2137 9.92492C16.2137 10.5143 15.7403 10.9921 15.1563 10.9921H1.05742C0.473422 10.9921 0 10.5143 0 9.92492Z" fill="#006156"/>
</svg>
